<?xml version="1.0"?>
<svg xmlns="http://www.w3.org/2000/svg" width="32" height="23.598" viewBox="0 0 32 23.598">
  <path d="M32,11.272v1.053c0,.053-.026.105-.026.158-.053.448-.079.922-.158,1.37a11.323,11.323,0,0,1-1.58,4.135,11.733,11.733,0,0,1-4.872,4.4,11.568,11.568,0,0,1-3.74,1.106c-.29.026-.579.053-.869.105H9.508c-.053,0-.105-.026-.158-.026a10.062,10.062,0,0,1-8.323-5.584,9.207,9.207,0,0,1-.922-3.108c-.026-.263-.053-.527-.105-.79V13.063c0-.053.026-.105.026-.158a9.634,9.634,0,0,1,.606-2.844A9.87,9.87,0,0,1,5.61,4.583,9.756,9.756,0,0,1,9.534,3.556a12.726,12.726,0,0,1,2,.079.381.381,0,0,0,.184-.053,12.065,12.065,0,0,1,3.266-2.37A11.718,11.718,0,0,1,18.752.105c.316-.026.632-.053.922-.105h.948c.053,0,.132.026.184.026.474.053.948.079,1.422.158a10.978,10.978,0,0,1,4.109,1.554,11.621,11.621,0,0,1,4.425,4.872,11.764,11.764,0,0,1,1.106,3.74,5.974,5.974,0,0,1,.132.922M14.117,4.451c.026.026.026.026.026.053a12.181,12.181,0,0,1,1.87,1.133.223.223,0,0,0,.184,0,7.389,7.389,0,0,1,9.824,1.686,6.937,6.937,0,0,1,1.449,5.689,7.271,7.271,0,0,1-1.765,3.74,7.114,7.114,0,0,1-6.558,2.4,6.94,6.94,0,0,1-4.135-2.028c-1.475-1.475-2.95-2.95-4.4-4.425a1.386,1.386,0,0,0-.685-.4,1.113,1.113,0,0,0-1.159.632,1.034,1.034,0,0,0,.237,1.238c1.633,1.607,3.266,3.24,4.9,4.846.29.263.579.527.9.764a8.375,8.375,0,0,0,4,1.528,9.208,9.208,0,0,0,3.4-.132A9.608,9.608,0,0,0,29.63,13.09a10.062,10.062,0,0,0-.079-3.081,9.079,9.079,0,0,0-2.16-4.425,9.256,9.256,0,0,0-8.086-3.266,9.246,9.246,0,0,0-3.529,1.027,10.106,10.106,0,0,0-1.659,1.106m-.79,16.909c-.053-.053-.105-.079-.132-.132-.658-.632-1.343-1.264-2-1.9a.524.524,0,0,0-.421-.184,7.326,7.326,0,0,1-2-.132A5.588,5.588,0,0,1,10.956,8.059a5.466,5.466,0,0,1,3.029,1.58c1.027,1.053,2.081,2.081,3.108,3.134a.917.917,0,0,0,.843.29,1.055,1.055,0,0,0,.922-.685.978.978,0,0,0-.237-1.106c-1.08-1.106-2.16-2.239-3.292-3.292A7.408,7.408,0,0,0,7.691,6.189a7.77,7.77,0,0,0,2.37,15.17h3.266" fill="#999"/>
</svg>
