<?xml version="1.0"?>
<svg xmlns="http://www.w3.org/2000/svg" width="60" height="60" viewBox="0 0 60 60">
  <g transform="translate(-1101 -268)">
    <g transform="translate(1109 297.618) rotate(-45)">
      <circle cx="2.992" cy="2.992" r="2.992" transform="translate(14.465 9.919)" fill="#ff614c"/>
      <g transform="translate(0 0)">
        <path d="M0,1.092A1.092,1.092,0,1,1,1.092,2.184,1.092,1.092,0,0,1,0,1.092Z" transform="translate(12.011 1.092)" fill="#fcce00"/>
        <path d="M0,1.092A1.092,1.092,0,1,1,1.092,2.184,1.092,1.092,0,0,1,0,1.092Z" transform="translate(20.746 2.184)" fill="#fcce00"/>
        <path d="M1.092,0A1.092,1.092,0,1,1,0,1.092,1.092,1.092,0,0,1,1.092,0Z" transform="translate(26.205 7.643)" fill="#fcce00"/>
        <path d="M0,1.092A1.092,1.092,0,1,1,1.092,2.184,1.092,1.092,0,0,1,0,1.092Z" transform="translate(5.459 7.643)" fill="#fcce00"/>
        <path d="M2.184,1.092A1.092,1.092,0,1,1,1.092,0,1.092,1.092,0,0,1,2.184,1.092Z" transform="translate(26.205 16.378)" fill="#fcce00"/>
        <path d="M2.184,1.092A1.092,1.092,0,1,1,1.092,0,1.092,1.092,0,0,1,2.184,1.092Z" transform="translate(20.746 22.93)" fill="#fcce00"/>
        <path d="M2.184,1.092A1.092,1.092,0,1,1,1.092,0,1.092,1.092,0,0,1,2.184,1.092Z" transform="translate(12.011 21.838)" fill="#fcce00"/>
        <path d="M1.092,0A1.092,1.092,0,1,1,0,1.092,1.092,1.092,0,0,1,1.092,0Z" transform="translate(6.551 16.378)" fill="#fcce00"/>
        <path d="M20.559,1.277a4.358,4.358,0,0,0-6.839,5.295L.32,19.972a1.092,1.092,0,1,0,1.544,1.544l13.4-13.4a4.358,4.358,0,0,0,5.295-6.839ZM19.015,5.91a2.184,2.184,0,1,1,0-3.088A2.186,2.186,0,0,1,19.015,5.91Z" transform="translate(0 8.737)" fill="#284660"/>
        <path d="M.32,3.6,3.6.32A1.092,1.092,0,1,1,5.14,1.864L1.864,5.14A1.092,1.092,0,1,1,.32,3.6Z" transform="translate(22.93 2.184)" fill="#fcce00"/>
        <path d="M0,4.368V1.092a1.092,1.092,0,0,1,2.184,0V4.368A1.092,1.092,0,1,1,0,4.368Z" transform="translate(16.378 0)" fill="#fcce00"/>
        <path d="M2.184,1.092V5.459A1.092,1.092,0,1,1,0,5.459V1.092a1.092,1.092,0,1,1,2.184,0Z" transform="translate(16.378 20.746)" fill="#fcce00"/>
        <path d="M5.459,1.092A1.092,1.092,0,0,1,4.368,2.184H1.092A1.092,1.092,0,1,1,1.092,0H4.368A1.092,1.092,0,0,1,5.459,1.092Z" transform="translate(25.114 12.011)" fill="#fcce00"/>
        <path d="M5.14,3.6A1.092,1.092,0,0,1,3.6,5.14L.32,1.864A1.092,1.092,0,0,1,1.864.32Z" transform="translate(22.93 18.562)" fill="#fcce00"/>
        <path d="M.32,1.864A1.092,1.092,0,0,1,1.864.32L5.14,3.6A1.092,1.092,0,0,1,3.6,5.14Z" transform="translate(6.551 2.184)" fill="#fcce00"/>
        <path d="M0,1.092A1.092,1.092,0,0,1,1.092,0H5.459a1.092,1.092,0,0,1,0,2.184H1.092A1.092,1.092,0,0,1,0,1.092Z" transform="translate(3.276 12.011)" fill="#fcce00"/>
      </g>
    </g>
    <rect width="60" height="60" transform="translate(1101 268)" fill="none"/>
  </g>
</svg>
